<svg xmlns="http://www.w3.org/2000/svg" viewBox="0 0 405.48 60.03"><defs><style>.cls-1{fill:#ffffff;}</style></defs><g id="Layer_2" data-name="Layer 2"><g id="Layer_1-2" data-name="Layer 1"><path class="cls-1" d="M30.86,3.57,17.65,26.45a2.38,2.38,0,0,1-4.12,0L.32,3.57A2.38,2.38,0,0,1,2.38,0H28.8A2.38,2.38,0,0,1,30.86,3.57Z"/><path class="cls-1" d="M65.52,3.57,52.31,26.45a2.38,2.38,0,0,1-4.12,0L35,3.57A2.38,2.38,0,0,1,37,0H63.46A2.38,2.38,0,0,1,65.52,3.57Z"/><path class="cls-1" d="M28.8,60H2.38A2.38,2.38,0,0,1,.32,56.46L13.53,33.59a2.38,2.38,0,0,1,4.12,0L30.86,56.46A2.38,2.38,0,0,1,28.8,60Z"/><path class="cls-1" d="M63.46,60H37A2.38,2.38,0,0,1,35,56.46L48.19,33.59a2.38,2.38,0,0,1,4.12,0L65.52,56.46A2.38,2.38,0,0,1,63.46,60Z"/><path class="cls-1" d="M44.59,31.21,35,47.84a2.38,2.38,0,0,1-4.12,0L21.25,31.21a2.41,2.41,0,0,1,0-2.38l9.61-16.64a2.38,2.38,0,0,1,4.12,0l9.61,16.64A2.41,2.41,0,0,1,44.59,31.21Z"/><path class="cls-1" d="M88,45.31V14.76H92l10.53,25.69,10.52-25.69h4.14V45.31h-4.06V33.23c0-5.71,0-7.78.25-9.93l-8.91,22h-3.89L91.75,23.38A82.67,82.67,0,0,1,92,32.26V45.31Z"/><path class="cls-1" d="M122.63,39.56c0-3.8,2.83-6.16,7.69-6.54l6.51-.51v-.59c0-3.47-2.07-4.69-4.86-4.69-3.34,0-5.24,1.48-5.24,4h-3.47c0-4.31,3.55-7.14,8.88-7.14,5.11,0,8.57,2.7,8.57,8.28v13h-3.38L136.91,42c-1,2.37-3.89,3.85-7.22,3.85C125.25,45.82,122.63,43.32,122.63,39.56Zm14.24-3.16V35.3l-5.28.42c-3.51.34-4.94,1.69-4.94,3.72,0,2.19,1.6,3.29,4.18,3.29C134.59,42.73,136.87,40.28,136.87,36.4Z"/><path class="cls-1" d="M144.85,35c0-6.33,3.68-11,9.81-11A7.89,7.89,0,0,1,161.88,28V14.21h3.93v31.1h-3.55l-.34-3.76c-1.35,2.83-4.14,4.27-7.43,4.27C148.49,45.82,144.85,41.34,144.85,35Zm17-.12c0-4.23-2.49-7.27-6.55-7.27s-6.42,3-6.42,7.27,2.36,7.31,6.42,7.31S161.84,39.23,161.84,34.92Z"/><path class="cls-1" d="M170.2,35c0-6.46,4.1-10.94,10.1-10.94S190,28.11,190,34.24v1.48l-16,0c.29,4.35,2.57,6.76,6.5,6.76,3.09,0,5.12-1.27,5.79-3.63h3.72c-1,4.43-4.48,6.93-9.59,6.93C174.39,45.82,170.2,41.42,170.2,35Zm3.93-1.9h11.92a5.38,5.38,0,0,0-5.75-5.7C176.84,27.4,174.64,29.47,174.13,33.1Z"/><path class="cls-1" d="M203.75,14.76h4.31l5.57,18.68c.43,1.6.85,3.21,1.27,5.53.51-2.45,1-3.93,1.44-5.53l5.79-18.68h4.47l5.75,18.68a55.77,55.77,0,0,1,1.4,5.53,46.53,46.53,0,0,1,1.35-5.49l5.62-18.72h4.22l-9.21,30.55h-4l-7.39-24.17-7.48,24.17h-4.06Z"/><path class="cls-1" d="M247.77,17.13a2.62,2.62,0,1,1,2.62,2.62A2.6,2.6,0,0,1,247.77,17.13Zm.67,7.52h4V45.31h-4Z"/><path class="cls-1" d="M260,45.31V28H256V24.65H260V18.19h4v6.46h4.06V28H264V45.31Z"/><path class="cls-1" d="M271.6,45.27V14.21h4V27.82a7.86,7.86,0,0,1,7-3.76c5.28,0,7.82,3.34,7.82,8.62V45.31h-4V33.56c0-4.18-2-5.87-4.95-5.87-3.84,0-5.91,2.79-5.91,6.34V45.27Z"/><path class="cls-1" d="M308.1,45.31V14.76h4l10.52,25.69L333.2,14.76h4.14V45.31h-4.06V33.23c0-5.71,0-7.78.25-9.93l-8.91,22h-3.89l-8.87-21.93a82.67,82.67,0,0,1,.29,8.88V45.31Z"/><path class="cls-1" d="M342.74,39.56c0-3.8,2.83-6.16,7.69-6.54l6.51-.51v-.59c0-3.47-2.07-4.69-4.86-4.69-3.34,0-5.24,1.48-5.24,4h-3.47c0-4.31,3.55-7.14,8.88-7.14,5.11,0,8.57,2.7,8.57,8.28v13h-3.38L357,42c-1,2.37-3.89,3.85-7.22,3.85C345.36,45.82,342.74,43.32,342.74,39.56ZM357,36.4V35.3l-5.28.42c-3.51.34-4.95,1.69-4.95,3.72,0,2.19,1.61,3.29,4.19,3.29C354.7,42.73,357,40.28,357,36.4Z"/><path class="cls-1" d="M366.4,45.31V14.21h4V34.37l9.17-9.72h5l-7.9,8.24,7.85,12.42h-4.56l-6-9.55-3.51,3.68v5.87Z"/><path class="cls-1" d="M385.62,35c0-6.46,4.1-10.94,10.1-10.94s9.72,4.05,9.72,10.18v1.48l-16,0c.29,4.35,2.57,6.76,6.5,6.76,3.09,0,5.12-1.27,5.79-3.63h3.72c-1,4.43-4.48,6.93-9.59,6.93C389.81,45.82,385.62,41.42,385.62,35Zm3.93-1.9h11.92a5.38,5.38,0,0,0-5.75-5.7C392.26,27.4,390.06,29.47,389.55,33.1Z"/></g></g></svg>