<svg xmlns="http://www.w3.org/2000/svg" viewBox="0 0 91.03 83"><defs><style>.cls-1{fill:#00aeef;}</style></defs><g id="Layer_2" data-name="Layer 2"><g id="Layer_1-2" data-name="Layer 1"><path class="cls-1" d="M42.67,4.94,24.41,36.56a3.29,3.29,0,0,1-5.7,0L.45,4.94A3.29,3.29,0,0,1,3.3,0H39.82A3.3,3.3,0,0,1,42.67,4.94Z"/><path class="cls-1" d="M90.59,4.94,72.33,36.56a3.29,3.29,0,0,1-5.7,0L48.37,4.94A3.29,3.29,0,0,1,51.22,0H87.74A3.3,3.3,0,0,1,90.59,4.94Z"/><path class="cls-1" d="M39.82,83H3.3A3.29,3.29,0,0,1,.45,78.06L18.71,46.44a3.29,3.29,0,0,1,5.7,0L42.67,78.06A3.3,3.3,0,0,1,39.82,83Z"/><path class="cls-1" d="M87.74,83H51.22a3.29,3.29,0,0,1-2.85-4.94L66.63,46.44a3.29,3.29,0,0,1,5.7,0L90.59,78.06A3.3,3.3,0,0,1,87.74,83Z"/><path class="cls-1" d="M61.65,43.15l-13.28,23a3.29,3.29,0,0,1-5.7,0l-13.28-23a3.3,3.3,0,0,1,0-3.3l13.28-23a3.29,3.29,0,0,1,5.7,0l13.28,23A3.35,3.35,0,0,1,61.65,43.15Z"/></g></g></svg>